# xmcd
#
# Track frame offsets:
#	150
#	13614
#	31288
#	46615
#	63952
#	78331
#	93182
#	109881
#	126239
#	143237
#
# Disc length: 2172 seconds
#
# Revision: 0
# Processed by: cddbd v1.5.2PL0 Copyright (c) Steve Scherf et al.
# Submitted via: audiograbber 1.83.01
#
DISCID=77087a0a
DTITLE=Shelby Lynne - Soft Talk
DYEAR=1991
DGENRE=Country
TTITLE0=Don't Cross Your Heart
TTITLE1=I've Learned To Live
TTITLE2=Alive And Well
TTITLE3=A Lighter Shade Of Blue
TTITLE4=It Must Be You
TTITLE5=You Can't Break A Broken Heart
TTITLE6=Soft Talk
TTITLE7=The Very First Lasting Love (Duet With Les Taylor)
TTITLE8=Stop Me
TTITLE9=It Might Be Me
EXTD=
EXTT0=
EXTT1=
EXTT2=
EXTT3=
EXTT4=
EXTT5=
EXTT6=
EXTT7=
EXTT8=
EXTT9=
PLAYORDER=
